<svg clip-rule="evenodd" fill-rule="evenodd" stroke-linejoin="round" stroke-miterlimit="2" viewBox="0 0 64 64" xmlns="http://www.w3.org/2000/svg"><path d="m0 0h64v64h-64z" fill="none"/><path d="m9.803 56h4v4c0 2.208 1.792 4 4 4h40c2.208 0 4-1.792 4-4v-48c0-2.208-1.792-4-4-4h-4v-4c0-2.208-1.792-4-4-4h-40c-2.208 0-4 1.792-4 4v48c0 2.208 1.792 4 4 4zm41-3h-42v-50h42zm8-42v50h-42v-5h33c2.208 0 4-1.792 4-4v-41z" fill="#c2c2cf" fill-opacity=".941176" fill-rule="nonzero" stroke-width="2"/><text x="17.627119" y="10.847458"><tspan x="17.627119" y="46.238083"/></text><g fill-rule="nonzero" stroke-width="2.246654"><path d="m44.432198 31.507055-17.973231-17.97323-3.041969 3.039723 17.97323 17.97323z" fill="#99d8ff"/><path d="m46.678851 21.203901c.467304-1.422132-1.754636-3.644072-3.176768-3.176768-1.574904.51673-6.274904 6.274904-6.274904 6.274904l3.176768 3.176768s5.758174-4.7 6.274904-6.274904z" fill="#e3e6ea"/><path d="m30.487217 17.562075 3.176769 3.176769s5.758174-4.7 6.274904-6.274904c.467304-1.422132-1.754637-3.644073-3.176768-3.176769-1.574905.516731-6.274905 6.274904-6.274905 6.274904z" fill="#e3e6ea"/><path d="m38.606624 34.939942-15.580544-15.580544c-3.363241 4.032744-7.180305 10.267208-4.542734 15.629971l-4.641587 4.641587c-1.091873 1.091873-1.091873 2.88021 0 3.972083l.521224.521224c1.091874 1.091874 2.88021 1.091874 3.972084 0l4.641587-4.641587c5.362762 2.637572 11.59498-1.177246 15.62997-4.542734z" fill="#99d8ff"/></g></svg>