<svg clip-rule="evenodd" fill-rule="evenodd" stroke-linejoin="round" stroke-miterlimit="2" viewBox="0 0 64 64" xmlns="http://www.w3.org/2000/svg"><path d="m0 0h64v64h-64z" fill="none"/><path d="m9.803 56h4v4c0 2.208 1.792 4 4 4h40c2.208 0 4-1.792 4-4v-48c0-2.208-1.792-4-4-4h-4v-4c0-2.208-1.792-4-4-4h-40c-2.208 0-4 1.792-4 4v48c0 2.208 1.792 4 4 4zm41-3h-42v-50h42zm8-42v50h-42v-5h33c2.208 0 4-1.792 4-4v-41z" fill="#676e78" fill-rule="nonzero" stroke-width="2"/><text x="17.627119" y="10.847458"><tspan x="17.627119" y="46.238083"/></text><g fill-rule="nonzero" stroke-width="2.246654" transform="translate(13.025502 11.009641)"><path d="m31.406696 20.497414-17.973231-17.97323-3.041969 3.0397226 17.97323 17.9732304z" fill="#167bba"/><path d="m33.653349 10.19426c.467304-1.4221318-1.754636-3.6440724-3.176768-3.1767684-1.574904.5167304-6.274904 6.2749044-6.274904 6.2749044l3.176768 3.176768s5.758174-4.7 6.274904-6.274904z" fill="#676e78"/><path d="m17.461715 6.5524343 3.176769 3.1767684s5.758174-4.6999997 6.274904-6.274904c.467304-1.4221319-1.754637-3.64407249-3.176768-3.1767685-1.574905.51673037-6.274905 6.2749041-6.274905 6.2749041z" fill="#676e78"/><path d="m25.581122 23.930301-15.580544-15.5805437c-3.3632405 4.0327437-7.1803054 10.2672077-4.5427338 15.6299707l-4.64158674 4.641587c-1.09187375 1.091873-1.09187375 2.88021 0 3.972083l.52122364.521224c1.0918738 1.091874 2.8802102 1.091874 3.972084 0l4.6415867-4.641587c5.3627622 2.637572 11.5949802-1.177246 15.6299702-4.542734z" fill="#167bba"/></g></svg>